# xmcd CD database file
#
# Track frame offsets:
#	150
#	17932
#	42574
#	61470
#	82202
#	104267
#	122914
#	146742
#	170644
#	192593
#	213889
#	235401
#	261030
#	282832
#
# Disc length: 4065 seconds
#
# Revision: 0
# Processed by: cddbd v1.5.1PL2 Copyright (c) Steve Scherf et al.
# Submitted via: CDex 1.51
#
DISCID=dc0fdf0e
DTITLE=Christoph Spendel - silent night
DYEAR=1999
DGENRE=Jazz
TTITLE0=Oh Tannenbaum
TTITLE1=Stille Nacht
TTITLE2=Morgen kommt der Weihnachtsmann
TTITLE3=Engel haben wir vernommen
TTITLE4=Let it snow
TTITLE5=Jingle Bells
TTITLE6=Leise rieselt der Schnee
TTITLE7=Santa Claus is coming to town
TTITLE8=Lasst uns froh und munter sein
TTITLE9=Go tell it on the mountain
TTITLE10=Kling Glöckchen
TTITLE11=Süßer die Glocken
TTITLE12=Herbei oh ihr Gläubigen
TTITLE13=White Christmas
EXTD=YEAR: 1999
EXTT0=
EXTT1=
EXTT2=
EXTT3=
EXTT4=
EXTT5=
EXTT6=
EXTT7=
EXTT8=
EXTT9=
EXTT10=
EXTT11=
EXTT12=
EXTT13=
PLAYORDER=
